<svg width="16" height="16" viewBox="0 0 16 16" fill="none" xmlns="http://www.w3.org/2000/svg">
<path d="M12.2421 12.2426C12.5025 11.9823 12.5025 11.5602 12.2421 11.2998L8.94277 8.00043L12.2431 4.70015C12.5034 4.4398 12.5034 4.01769 12.2431 3.75734C11.9827 3.49699 11.5606 3.49699 11.3002 3.75734L7.99996 7.05762L4.69967 3.75733C4.43932 3.49699 4.01721 3.49699 3.75686 3.75733C3.49651 4.01768 3.49651 4.43979 3.75686 4.70014L7.05715 8.00043L3.75777 11.2998C3.49742 11.5602 3.49742 11.9823 3.75777 12.2426C4.01812 12.503 4.44023 12.503 4.70058 12.2426L7.99996 8.94324L11.2993 12.2426C11.5597 12.503 11.9818 12.503 12.2421 12.2426Z" fill="#191D23"/>
</svg>
